<svg width="1141" height="787" viewBox="0 0 1141 787" fill="none" xmlns="http://www.w3.org/2000/svg">
<path fill-rule="evenodd" clip-rule="evenodd" d="M88.8157 751.006H0L0 750.006H88.8157L88.8157 654.967H0L0 653.967H88.8157V558.93H0L0 557.93H88.8157V462.891H0L0 461.891H88.8157L88.8157 366.852H0L0 365.852H88.8157V270.814H0L0 269.814H88.8157L88.8157 174.775H0L0 173.775H88.8157V78.7363H0L0 77.7363H88.8157V-13H89.8157V77.7363H184.854V-13H185.854V77.7363H280.893V-13H281.893V77.7363H376.931V-13H377.931V77.7363H472.969V-13H473.969V77.7363H569.008V-13H570.008V77.7363H665.046V-13H666.046V77.7363H761.085V-13H762.085V77.7363H857.123V-13H858.123V77.7363L953.161 77.7363V-13H954.161V77.7363H1049.2V-13H1050.2V77.7363H1140.94V78.7363H1050.2V173.775H1140.94V174.775H1050.2V269.814H1140.94V270.814H1050.2V365.852H1140.94V366.852H1050.2V461.891H1140.94V462.891H1050.2V557.93H1140.94V558.93H1050.2V653.967H1140.94V654.967H1050.2V750.006H1140.94V751.006H1050.2V787H1049.2V751.006L954.161 751.006V787H953.161V751.006H858.123V787H857.123V751.006H762.085V787H761.085V751.006H666.046V787H665.046V751.006H570.008V787H569.008V751.006H473.969V787H472.969V751.006H377.931V787H376.931V751.006H281.893V787H280.893V751.006H185.854V787H184.854V751.006H89.8157V787H88.8157V751.006ZM89.8157 750.006H184.854V654.967H89.8157L89.8157 750.006ZM89.8157 653.967H184.854V558.93H89.8157V653.967ZM89.8157 557.93H184.854L184.854 462.891H89.8157V557.93ZM89.8157 461.891H184.854V366.852H89.8157L89.8157 461.891ZM89.8157 365.852H184.854V270.814H89.8157V365.852ZM89.8157 269.814H184.854V174.775H89.8157L89.8157 269.814ZM89.8157 173.775H184.854L184.854 78.7363H89.8157V173.775ZM185.854 78.7363L185.854 173.775H280.893V78.7363H185.854ZM281.893 78.7363V173.775H376.931V78.7363H281.893ZM377.931 78.7363V173.775H472.969V78.7363H377.931ZM473.969 78.7363V173.775H569.008V78.7363H473.969ZM570.008 78.7363V173.775H665.046V78.7363H570.008ZM666.046 78.7363V173.775H761.085V78.7363H666.046ZM762.085 78.7363V173.775H857.123V78.7363H762.085ZM858.123 78.7363V173.775L953.161 173.775V78.7363L858.123 78.7363ZM954.161 78.7363V173.775H1049.2V78.7363H954.161ZM1049.2 174.775H954.161V269.814H1049.2V174.775ZM1049.2 270.814H954.161V365.852H1049.2V270.814ZM1049.2 366.852H954.161V461.891H1049.2V366.852ZM1049.2 462.891H954.161V557.93H1049.2V462.891ZM1049.2 558.93H954.161V653.967H1049.2V558.93ZM1049.2 654.967H954.161V750.006L1049.2 750.006V654.967ZM953.161 750.006V654.967H858.123V750.006H953.161ZM857.123 750.006V654.967H762.085V750.006H857.123ZM761.085 750.006V654.967H666.046V750.006H761.085ZM665.046 750.006V654.967H570.008V750.006H665.046ZM569.008 750.006V654.967H473.969V750.006H569.008ZM472.969 750.006V654.967H377.931V750.006H472.969ZM376.931 750.006V654.967H281.893V750.006H376.931ZM280.893 750.006V654.967H185.854V750.006H280.893ZM185.854 653.967H280.893V558.93H185.854V653.967ZM185.854 557.93H280.893V462.891H185.854L185.854 557.93ZM185.854 461.891H280.893V366.852H185.854V461.891ZM185.854 365.852H280.893L280.893 270.814H185.854V365.852ZM185.854 269.814H280.893V174.775H185.854V269.814ZM281.893 174.775V269.814H376.931V174.775H281.893ZM377.931 174.775V269.814H472.969V174.775H377.931ZM473.969 174.775V269.814H569.008V174.775H473.969ZM570.008 174.775V269.814H665.046V174.775H570.008ZM666.046 174.775V269.814H761.085V174.775H666.046ZM762.085 174.775V269.814H857.123V174.775H762.085ZM858.123 174.775V269.814L953.161 269.814V174.775L858.123 174.775ZM953.161 270.814L858.123 270.814V365.852H953.161V270.814ZM953.161 366.852H858.123V461.891H953.161V366.852ZM953.161 462.891H858.123V557.93H953.161V462.891ZM953.161 558.93H858.123V653.967H953.161V558.93ZM857.123 653.967V558.93H762.085V653.967H857.123ZM761.085 653.967V558.93H666.046V653.967H761.085ZM665.046 653.967V558.93H570.008V653.967H665.046ZM569.008 653.967V558.93H473.969V653.967H569.008ZM472.969 653.967V558.93H377.931V653.967H472.969ZM376.931 653.967V558.93H281.893V653.967H376.931ZM281.893 557.93H376.931V462.891H281.893V557.93ZM281.893 461.891H376.931V366.852H281.893V461.891ZM281.893 365.852H376.931L376.931 270.814H281.893L281.893 365.852ZM377.931 270.814L377.931 365.852L472.969 365.852L472.969 270.814H377.931ZM473.969 270.814L473.969 365.852H569.008V270.814H473.969ZM570.008 270.814V365.852H665.046V270.814H570.008ZM666.046 270.814V365.852H761.085V270.814H666.046ZM762.085 270.814V365.852H857.123V270.814H762.085ZM857.123 366.852H762.085V461.891H857.123V366.852ZM857.123 462.891H762.085V557.93H857.123V462.891ZM761.085 557.93V462.891H666.046V557.93H761.085ZM665.046 557.93V462.891H570.008V557.93H665.046ZM569.008 557.93V462.891H473.969V557.93H569.008ZM472.969 557.93V462.891L377.931 462.891V557.93H472.969ZM377.931 461.891L472.969 461.891V366.852L377.931 366.852V461.891ZM473.969 366.852V461.891H569.008V366.852H473.969ZM570.008 366.852V461.891H665.046V366.852H570.008ZM666.046 366.852V461.891H761.085V366.852H666.046Z" fill="url(#paint0_radial_2358_575)"/>
<defs>
<radialGradient id="paint0_radial_2358_575" cx="0" cy="0" r="1" gradientUnits="userSpaceOnUse" gradientTransform="translate(569.508 387) rotate(90) scale(400 481.152)">
<stop stop-color="white"/>
<stop offset="0.5" stop-color="#DEDEDE"/>
<stop offset="1" stop-color="white"/>
</radialGradient>
</defs>
</svg>
