<svg width="1070" height="750" viewBox="0 0 1070 750" fill="none" xmlns="http://www.w3.org/2000/svg">
<path fill-rule="evenodd" clip-rule="evenodd" d="M83.2335 716.287H0L0 715.287H83.2335L83.2335 626.252H0L0 625.252H83.2335V536.215H0L0 535.215H83.2335V446.18H0L0 445.18H83.2335L83.2335 356.143H0L0 355.143H83.2335V266.107H0L0 265.107H83.2335V176.07H0L0 175.07H83.2335L83.2335 86.035H0L0 85.035H83.2335V0H84.2335V85.035H173.27L173.27 0H174.27L174.27 85.035H263.306V0H264.306V85.035H353.342V0H354.342V85.035H443.378V0H444.378V85.035H533.414V0H534.414V85.035H623.45V0H624.45V85.035H713.486V0H714.486V85.035H803.522V0H804.522V85.035H893.558V0H894.558V85.035L983.594 85.035V0H984.594V85.035H1069.63V86.035H984.594V175.07H1069.63V176.07H984.594V265.107H1069.63V266.107H984.594V355.143H1069.63V356.143H984.594V445.18H1069.63V446.18H984.594V535.215H1069.63V536.215H984.594V625.252L1069.63 625.252V626.252L984.594 626.252V715.287L1069.63 715.287V716.287L984.594 716.287V750H983.594V716.287H894.558V750H893.558V716.287H804.522V750H803.522V716.287H714.486V750H713.486V716.287H624.45V750H623.45V716.287H534.414V750H533.414V716.287H444.378V750H443.378V716.287H354.342V750H353.342V716.287H264.306V750H263.306V716.287H174.27V750H173.27V716.287H84.2335V750H83.2335V716.287ZM84.2335 715.287H173.27V626.252H84.2335L84.2335 715.287ZM84.2335 625.252H173.27V536.215H84.2335V625.252ZM84.2335 535.215H173.27L173.27 446.18H84.2335V535.215ZM84.2335 445.18H173.27V356.143H84.2335L84.2335 445.18ZM84.2335 355.143H173.27V266.107H84.2335V355.143ZM84.2335 265.107H173.27V176.07H84.2335V265.107ZM84.2335 175.07H173.27V86.035H84.2335L84.2335 175.07ZM174.27 86.035V175.07H263.306V86.035H174.27ZM264.306 86.035V175.07H353.342V86.035H264.306ZM354.342 86.035V175.07H443.378V86.035H354.342ZM444.378 86.035V175.07H533.414V86.035H444.378ZM534.414 86.035V175.07H623.45V86.035H534.414ZM624.45 86.035V175.07H713.486V86.035H624.45ZM714.486 86.035V175.07H803.522V86.035H714.486ZM804.522 86.035V175.07H893.558V86.035H804.522ZM894.558 86.035V175.07L983.594 175.07V86.035L894.558 86.035ZM983.594 176.07L894.558 176.07V265.107H983.594V176.07ZM983.594 266.107H894.558V355.143H983.594V266.107ZM983.594 356.143H894.558V445.18H983.594V356.143ZM983.594 446.18H894.558V535.215H983.594V446.18ZM983.594 536.215H894.558V625.252H983.594V536.215ZM983.594 626.252H894.558V715.287H983.594V626.252ZM893.558 715.287V626.252H804.522V715.287H893.558ZM803.522 715.287V626.252H714.486V715.287H803.522ZM713.486 715.287V626.252H624.45V715.287H713.486ZM623.45 715.287V626.252H534.414V715.287H623.45ZM533.414 715.287V626.252H444.378V715.287H533.414ZM443.378 715.287V626.252H354.342V715.287H443.378ZM353.342 715.287V626.252H264.306V715.287H353.342ZM263.306 715.287V626.252H174.27V715.287H263.306ZM174.27 625.252H263.306V536.215H174.27V625.252ZM174.27 535.215H263.306V446.18H174.27L174.27 535.215ZM174.27 445.18H263.306V356.143H174.27V445.18ZM174.27 355.143H263.306L263.306 266.107H174.27V355.143ZM174.27 265.107H263.306V176.07H174.27V265.107ZM264.306 176.07V265.107H353.342V176.07H264.306ZM354.342 176.07V265.107H443.378V176.07H354.342ZM444.378 176.07V265.107L533.414 265.107V176.07H444.378ZM534.414 176.07V265.107H623.45V176.07H534.414ZM624.45 176.07V265.107H713.486V176.07H624.45ZM714.486 176.07V265.107H803.522V176.07H714.486ZM804.522 176.07V265.107H893.558V176.07H804.522ZM893.558 266.107H804.522V355.143H893.558V266.107ZM893.558 356.143H804.522V445.18H893.558V356.143ZM893.558 446.18H804.522V535.215H893.558V446.18ZM893.558 536.215H804.522V625.252H893.558V536.215ZM803.522 625.252V536.215H714.486V625.252H803.522ZM713.486 625.252V536.215H624.45V625.252H713.486ZM623.45 625.252V536.215H534.414V625.252H623.45ZM533.414 625.252V536.215H444.378V625.252H533.414ZM443.378 625.252V536.215H354.342V625.252H443.378ZM353.342 625.252V536.215H264.306V625.252H353.342ZM264.306 535.215H353.342V446.18H264.306V535.215ZM264.306 445.18H353.342V356.143H264.306V445.18ZM264.306 355.143H353.342L353.342 266.107H264.306L264.306 355.143ZM354.342 266.107L354.342 355.143H443.378L443.378 266.107H354.342ZM444.378 266.107L444.378 355.143L533.414 355.143V266.107L444.378 266.107ZM534.414 266.107V355.143H623.45V266.107H534.414ZM624.45 266.107V355.143H713.486V266.107H624.45ZM714.486 266.107V355.143H803.522V266.107H714.486ZM803.522 356.143H714.486V445.18H803.522V356.143ZM803.522 446.18H714.486V535.215H803.522V446.18ZM713.486 535.215V446.18H624.45V535.215H713.486ZM623.45 535.215V446.18H534.414V535.215H623.45ZM533.414 535.215V446.18L444.378 446.18V535.215H533.414ZM443.378 535.215V446.18H354.342V535.215H443.378ZM354.342 445.18H443.378V356.143H354.342V445.18ZM444.378 356.143V445.18L533.414 445.18V356.143L444.378 356.143ZM534.414 356.143V445.18H623.45V356.143H534.414ZM624.45 356.143V445.18H713.486V356.143H624.45Z" fill="url(#paint0_radial_2358_612)"/>
<defs>
<radialGradient id="paint0_radial_2358_612" cx="0" cy="0" r="1" gradientUnits="userSpaceOnUse" gradientTransform="translate(533.914 375) rotate(90) scale(375 451.08)">
<stop stop-color="#010314"/>
<stop offset="0.5" stop-color="#2A2D4D"/>
<stop offset="1" stop-color="#010314"/>
</radialGradient>
</defs>
</svg>
