<svg width="1141" height="800" viewBox="0 0 1141 800" fill="none" xmlns="http://www.w3.org/2000/svg">
<path fill-rule="evenodd" clip-rule="evenodd" d="M88.8157 764.006H0L0 763.006H88.8157L88.8157 667.967H0L0 666.967H88.8157V571.93H0L0 570.93H88.8157V475.891H0L0 474.891H88.8157L88.8157 379.852H0L0 378.852H88.8157V283.814H0L0 282.814H88.8157L88.8157 187.775H0L0 186.775H88.8157V91.7363H0L0 90.7363H88.8157V0H89.8157V90.7363H184.854V0H185.854V90.7363H280.893V0H281.893V90.7363H376.931V0H377.931V90.7363H472.969V0H473.969V90.7363H569.008V0H570.008V90.7363H665.046V0H666.046V90.7363H761.085V0H762.085V90.7363H857.123V0H858.123V90.7363L953.161 90.7363V0H954.161V90.7363H1049.2V0H1050.2V90.7363H1140.94V91.7363H1050.2V186.775H1140.94V187.775H1050.2V282.814H1140.94V283.814H1050.2V378.852H1140.94V379.852H1050.2V474.891H1140.94V475.891H1050.2V570.93H1140.94V571.93H1050.2V666.967H1140.94V667.967H1050.2V763.006H1140.94V764.006H1050.2V800H1049.2V764.006L954.161 764.006V800H953.161V764.006H858.123V800H857.123V764.006H762.085V800H761.085V764.006H666.046V800H665.046V764.006H570.008V800H569.008V764.006H473.969V800H472.969V764.006H377.931V800H376.931V764.006H281.893V800H280.893V764.006H185.854V800H184.854V764.006H89.8157V800H88.8157V764.006ZM89.8157 763.006H184.854V667.967H89.8157L89.8157 763.006ZM89.8157 666.967H184.854V571.93H89.8157V666.967ZM89.8157 570.93H184.854L184.854 475.891H89.8157V570.93ZM89.8157 474.891H184.854V379.852H89.8157L89.8157 474.891ZM89.8157 378.852H184.854V283.814H89.8157V378.852ZM89.8157 282.814H184.854V187.775H89.8157L89.8157 282.814ZM89.8157 186.775H184.854L184.854 91.7363H89.8157V186.775ZM185.854 91.7363L185.854 186.775H280.893V91.7363H185.854ZM281.893 91.7363V186.775H376.931V91.7363H281.893ZM377.931 91.7363V186.775H472.969V91.7363H377.931ZM473.969 91.7363V186.775H569.008V91.7363H473.969ZM570.008 91.7363V186.775H665.046V91.7363H570.008ZM666.046 91.7363V186.775H761.085V91.7363H666.046ZM762.085 91.7363V186.775H857.123V91.7363H762.085ZM858.123 91.7363V186.775L953.161 186.775V91.7363L858.123 91.7363ZM954.161 91.7363V186.775H1049.2V91.7363H954.161ZM1049.2 187.775H954.161V282.814H1049.2V187.775ZM1049.2 283.814H954.161V378.852H1049.2V283.814ZM1049.2 379.852H954.161V474.891H1049.2V379.852ZM1049.2 475.891H954.161V570.93H1049.2V475.891ZM1049.2 571.93H954.161V666.967H1049.2V571.93ZM1049.2 667.967H954.161V763.006L1049.2 763.006V667.967ZM953.161 763.006V667.967H858.123V763.006H953.161ZM857.123 763.006V667.967H762.085V763.006H857.123ZM761.085 763.006V667.967H666.046V763.006H761.085ZM665.046 763.006V667.967H570.008V763.006H665.046ZM569.008 763.006V667.967H473.969V763.006H569.008ZM472.969 763.006V667.967H377.931V763.006H472.969ZM376.931 763.006V667.967H281.893V763.006H376.931ZM280.893 763.006V667.967H185.854V763.006H280.893ZM185.854 666.967H280.893V571.93H185.854V666.967ZM185.854 570.93H280.893V475.891H185.854L185.854 570.93ZM185.854 474.891H280.893V379.852H185.854V474.891ZM185.854 378.852H280.893L280.893 283.814H185.854V378.852ZM185.854 282.814H280.893V187.775H185.854V282.814ZM281.893 187.775V282.814H376.931V187.775H281.893ZM377.931 187.775V282.814H472.969V187.775H377.931ZM473.969 187.775V282.814H569.008V187.775H473.969ZM570.008 187.775V282.814H665.046V187.775H570.008ZM666.046 187.775V282.814H761.085V187.775H666.046ZM762.085 187.775V282.814H857.123V187.775H762.085ZM858.123 187.775V282.814L953.161 282.814V187.775L858.123 187.775ZM953.161 283.814L858.123 283.814V378.852H953.161V283.814ZM953.161 379.852H858.123V474.891H953.161V379.852ZM953.161 475.891H858.123V570.93H953.161V475.891ZM953.161 571.93H858.123V666.967H953.161V571.93ZM857.123 666.967V571.93H762.085V666.967H857.123ZM761.085 666.967V571.93H666.046V666.967H761.085ZM665.046 666.967V571.93H570.008V666.967H665.046ZM569.008 666.967V571.93H473.969V666.967H569.008ZM472.969 666.967V571.93H377.931V666.967H472.969ZM376.931 666.967V571.93H281.893V666.967H376.931ZM281.893 570.93H376.931V475.891H281.893V570.93ZM281.893 474.891H376.931V379.852H281.893V474.891ZM281.893 378.852H376.931L376.931 283.814H281.893L281.893 378.852ZM377.931 283.814L377.931 378.852L472.969 378.852L472.969 283.814H377.931ZM473.969 283.814L473.969 378.852H569.008V283.814H473.969ZM570.008 283.814V378.852H665.046V283.814H570.008ZM666.046 283.814V378.852H761.085V283.814H666.046ZM762.085 283.814V378.852H857.123V283.814H762.085ZM857.123 379.852H762.085V474.891H857.123V379.852ZM857.123 475.891H762.085V570.93H857.123V475.891ZM761.085 570.93V475.891H666.046V570.93H761.085ZM665.046 570.93V475.891H570.008V570.93H665.046ZM569.008 570.93V475.891H473.969V570.93H569.008ZM472.969 570.93V475.891L377.931 475.891V570.93H472.969ZM377.931 474.891L472.969 474.891V379.852L377.931 379.852V474.891ZM473.969 379.852V474.891H569.008V379.852H473.969ZM570.008 379.852V474.891H665.046V379.852H570.008ZM666.046 379.852V474.891H761.085V379.852H666.046Z" fill="url(#paint0_radial_2668_2)"/>
<defs>
<radialGradient id="paint0_radial_2668_2" cx="0" cy="0" r="1" gradientUnits="userSpaceOnUse" gradientTransform="translate(569.508 400) rotate(90) scale(400 481.152)">
<stop stop-color="white"/>
<stop offset="0.5" stop-color="#DEDEDE"/>
<stop offset="1" stop-color="white"/>
</radialGradient>
</defs>
</svg>
