<svg width="31" height="30" viewBox="0 0 31 30" fill="none" xmlns="http://www.w3.org/2000/svg">
<g clip-path="url(#clip0_524_1722)">
<path d="M9.23663 21.0449C8.96227 21.0447 8.69401 21.1259 8.46579 21.2782C8.23756 21.4305 8.05963 21.647 7.9545 21.9004C7.84937 22.1539 7.82176 22.4328 7.87516 22.7019C7.92857 22.971 8.06059 23.2182 8.25452 23.4123C8.44846 23.6064 8.6956 23.7386 8.96468 23.7922C9.23375 23.8458 9.51268 23.8184 9.76618 23.7134C10.0197 23.6085 10.2364 23.4307 10.3888 23.2026C10.5413 22.9745 10.6226 22.7063 10.6226 22.4319C10.6226 22.0642 10.4766 21.7116 10.2167 21.4515C9.95685 21.1914 9.60432 21.0452 9.23663 21.0449Z" fill="#5F5F5F"/>
<path d="M21.9622 23.8189C22.7282 23.8189 23.3492 23.1979 23.3492 22.4319C23.3492 21.6659 22.7282 21.0449 21.9622 21.0449C21.1962 21.0449 20.5752 21.6659 20.5752 22.4319C20.5752 23.1979 21.1962 23.8189 21.9622 23.8189Z" fill="#5F5F5F"/>
<path d="M17.4173 21.6816H13.7812C13.5823 21.6816 13.3916 21.7607 13.2509 21.9013C13.1103 22.042 13.0312 22.2327 13.0312 22.4316C13.0312 22.6306 13.1103 22.8213 13.2509 22.962C13.3916 23.1026 13.5823 23.1816 13.7812 23.1816H17.4173C17.6162 23.1816 17.8069 23.1026 17.9476 22.962C18.0882 22.8213 18.1673 22.6306 18.1673 22.4316C18.1673 22.2327 18.0882 22.042 17.9476 21.9013C17.8069 21.7607 17.6162 21.6816 17.4173 21.6816Z" fill="#5F5F5F"/>
<path d="M23.7457 29.7498H25.5997C26.1103 29.7493 26.5997 29.5462 26.9607 29.1851C27.3216 28.824 27.5245 28.3344 27.5247 27.8238V21.7708C27.5236 20.8541 27.2072 19.9656 26.6285 19.2545C26.0498 18.5435 25.2442 18.0531 24.3467 17.8658L23.3707 14.3928C23.1457 13.577 22.6597 12.8572 21.987 12.3437C21.3144 11.8301 20.492 11.5509 19.6457 11.5488H11.5537C10.8174 11.5493 10.0966 11.7604 9.47637 12.1573C8.85618 12.5543 8.36253 13.1204 8.05372 13.7888C7.96381 13.9825 7.88989 14.1831 7.83272 14.3888L6.85672 17.8598C5.95929 18.0471 5.15361 18.5375 4.57493 19.2485C3.99625 19.9596 3.67981 20.8481 3.67872 21.7648V27.8178C3.67739 28.3287 3.879 28.8192 4.23923 29.1815C4.59946 29.5438 5.08882 29.7482 5.59972 29.7498H7.44372C7.95675 29.7493 8.44862 29.5453 8.81138 29.1825C9.17415 28.8197 9.37819 28.3279 9.37872 27.8148V27.3278C9.37872 27.2623 9.40474 27.1995 9.45106 27.1532C9.49738 27.1069 9.56021 27.0808 9.62572 27.0808H21.5737C21.6392 27.0808 21.7021 27.1069 21.7484 27.1532C21.7947 27.1995 21.8207 27.2623 21.8207 27.3278V27.8278C21.8223 28.3376 22.0257 28.826 22.3865 29.1862C22.7472 29.5464 23.2359 29.749 23.7457 29.7498ZM11.5537 13.0498H19.6457C20.1641 13.0515 20.6677 13.2231 21.0793 13.5383C21.4909 13.8534 21.7879 14.2948 21.9247 14.7948L22.7647 17.7828H8.43472L9.27672 14.7898C9.41378 14.2906 9.71065 13.8501 10.1219 13.5357C10.5331 13.2213 11.0361 13.0502 11.5537 13.0488V13.0498ZM21.5737 25.5818H9.62572C9.16255 25.5824 8.7185 25.7666 8.39099 26.0941C8.06348 26.4216 7.87925 26.8657 7.87872 27.3288V27.8158C7.87716 27.9307 7.83084 28.0405 7.74959 28.1217C7.66835 28.2029 7.5586 28.2493 7.44372 28.2508H5.59972C5.48691 28.2506 5.37881 28.2056 5.29914 28.1257C5.21946 28.0458 5.17472 27.9376 5.17472 27.8248V21.7708C5.17525 21.111 5.43751 20.4784 5.90396 20.0118C6.37041 19.5451 7.00293 19.2826 7.66272 19.2818H23.5367C24.1965 19.2826 24.829 19.5451 25.2955 20.0118C25.7619 20.4784 26.0242 21.111 26.0247 21.7708V27.8238C26.0247 27.9366 25.98 28.0448 25.9003 28.1247C25.8206 28.2046 25.7125 28.2496 25.5997 28.2498H23.7457C23.6329 28.2496 23.5248 28.2046 23.4451 28.1247C23.3655 28.0448 23.3207 27.9366 23.3207 27.8238V27.3238C23.3191 26.8614 23.1344 26.4183 22.807 26.0917C22.4796 25.765 22.0362 25.5814 21.5737 25.5808V25.5818Z" fill="#5F5F5F"/>
<path d="M26.7908 0.370977C25.6961 0.135686 24.5551 0.250469 23.5292 0.699096C22.5033 1.14772 21.6443 1.90749 21.0738 2.87098H10.8258C10.3546 2.07508 9.6848 1.41518 8.88196 0.955913C8.07911 0.496642 7.17075 0.253735 6.24583 0.250977C6.23483 0.250977 6.22383 0.250977 6.21283 0.250977C5.15379 0.251131 4.11849 0.564774 3.23742 1.15238C2.35635 1.73998 1.66894 2.57524 1.26181 3.5529C0.854686 4.53056 0.746072 5.60685 0.949659 6.64614C1.15325 7.68542 1.65992 8.64119 2.40583 9.39298C2.90108 9.89421 3.49074 10.2924 4.14074 10.5644C4.79073 10.8364 5.48819 10.977 6.19283 10.978H6.20983C7.13959 10.9747 8.05276 10.7315 8.86092 10.2718C9.66909 9.81207 10.3449 9.15148 10.8228 8.35398H21.0728C21.6897 9.40439 22.6495 10.2103 23.7908 10.636C24.9316 11.0646 26.1846 11.09 27.3417 10.708C28.4989 10.3259 29.4905 9.5595 30.1518 8.53598C30.2732 8.34861 30.3417 8.13197 30.3501 7.90891C30.3586 7.68585 30.3066 7.46464 30.1998 7.26864C30.093 7.07263 29.9353 6.90909 29.7433 6.79527C29.5512 6.68146 29.332 6.62159 29.1088 6.62198H26.4368L25.9368 5.61498L26.4368 4.60698H29.1078C29.331 4.60676 29.55 4.54641 29.7418 4.43227C29.9336 4.31813 30.0911 4.15442 30.1977 3.95835C30.3043 3.76229 30.3562 3.54112 30.3477 3.31809C30.3393 3.09507 30.2709 2.87844 30.1498 2.69098C29.7711 2.10142 29.2792 1.59282 28.7027 1.1946C28.1261 0.796372 27.4763 0.516434 26.7908 0.370977ZM25.9728 3.10698C25.8333 3.10723 25.6965 3.14627 25.5779 3.21973C25.4592 3.29318 25.3633 3.39817 25.3008 3.52298L24.4258 5.28098C24.3743 5.38477 24.3475 5.49909 24.3475 5.61498C24.3475 5.73086 24.3743 5.84518 24.4258 5.94898L25.2998 7.70598C25.3618 7.83092 25.4575 7.93606 25.5761 8.00956C25.6946 8.08306 25.8313 8.12199 25.9708 8.12198H28.5998C28.1851 8.61259 27.6538 8.99122 27.0547 9.22312C26.4556 9.45503 25.8078 9.5328 25.1708 9.4493C24.5339 9.36579 23.928 9.12369 23.4089 8.74519C22.8898 8.36669 22.4741 7.86392 22.1998 7.28298C22.139 7.15461 22.043 7.04614 21.923 6.97019C21.803 6.89425 21.6639 6.85395 21.5218 6.85398H10.3738C10.2326 6.85408 10.0942 6.89401 9.97466 6.96919C9.85509 7.04436 9.75914 7.15174 9.69783 7.27898C9.37613 7.93441 8.87834 8.48736 8.26019 8.87592C7.64204 9.26447 6.92793 9.47328 6.19783 9.47898C5.18384 9.46036 4.21782 9.04385 3.50821 8.3193C2.79859 7.59476 2.40228 6.62028 2.40477 5.60613C2.40726 4.59197 2.80837 3.61945 3.52154 2.89841C4.23471 2.17737 5.20276 1.76561 6.21683 1.75198H6.24083C6.9656 1.75259 7.67532 1.95877 8.28759 2.3466C8.89987 2.73443 9.38957 3.28798 9.69983 3.94298C9.76024 4.07179 9.85608 4.18074 9.97615 4.25707C10.0962 4.3334 10.2356 4.37395 10.3778 4.37398H21.5278C21.6699 4.37401 21.809 4.33371 21.929 4.25776C22.049 4.18181 22.145 4.07335 22.2058 3.94498C22.5114 3.29992 22.9911 2.75305 23.5908 2.36598C24.3735 1.86069 25.3132 1.65725 26.2348 1.79359C27.1564 1.92992 27.997 2.39672 28.5998 3.10698H25.9728Z" fill="#5F5F5F"/>
<path d="M6.23047 3.11523C5.73602 3.11523 5.25267 3.26186 4.84154 3.53656C4.43042 3.81126 4.10999 4.20171 3.92077 4.65853C3.73155 5.11534 3.68204 5.61801 3.77851 6.10296C3.87497 6.58791 4.11307 7.03337 4.4627 7.383C4.81233 7.73263 5.25779 7.97073 5.74274 8.0672C6.2277 8.16366 6.73036 8.11415 7.18718 7.92493C7.64399 7.73571 8.03444 7.41528 8.30914 7.00416C8.58385 6.59304 8.73047 6.10969 8.73047 5.61523C8.73047 4.95219 8.46708 4.31631 7.99824 3.84747C7.5294 3.37863 6.89351 3.11523 6.23047 3.11523ZM6.23047 6.61523C6.03269 6.61523 5.83935 6.55659 5.6749 6.4467C5.51045 6.33682 5.38228 6.18064 5.30659 5.99792C5.2309 5.81519 5.2111 5.61412 5.24968 5.42014C5.28827 5.22616 5.38351 5.04798 5.52336 4.90813C5.66322 4.76828 5.8414 4.67303 6.03538 4.63445C6.22936 4.59586 6.43043 4.61567 6.61315 4.69135C6.79588 4.76704 6.95206 4.89521 7.06194 5.05966C7.17182 5.22411 7.23047 5.41745 7.23047 5.61523C7.2302 5.88028 7.12473 6.13437 6.93722 6.32169C6.74972 6.50901 6.49551 6.61523 6.23047 6.61523Z" fill="#5F5F5F"/>
</g>
<defs>
<clipPath id="clip0_524_1722">
<rect width="30" height="30" fill="white" transform="translate(0.599609)"/>
</clipPath>
</defs>
</svg>
