<svg width="31" height="30" viewBox="0 0 31 30" fill="none" xmlns="http://www.w3.org/2000/svg">
<path d="M5.19434 4.6875C4.70895 4.6875 4.31543 5.08102 4.31543 5.56641V7.91016C4.31543 8.39555 4.70895 8.78906 5.19434 8.78906C5.67973 8.78906 6.07324 8.39555 6.07324 7.91016V5.56641C6.07324 5.08102 5.67973 4.6875 5.19434 4.6875Z" fill="#5F5F5F"/>
<path d="M5.19434 14.0625C4.70895 14.0625 4.31543 14.456 4.31543 14.9414V19.6289C4.31543 20.1143 4.70895 20.5078 5.19434 20.5078C5.67973 20.5078 6.07324 20.1143 6.07324 19.6289V14.9414C6.07324 14.456 5.67973 14.0625 5.19434 14.0625Z" fill="#5F5F5F"/>
<path d="M28.1631 5.97656H18.9639V2.63672C18.9639 1.18283 17.781 0 16.3271 0H3.43652C1.98264 0 0.799805 1.18283 0.799805 2.63672V27.3633C0.799805 28.8172 1.98264 30 3.43652 30H28.1631C29.617 30 30.7998 28.8172 30.7998 27.3633V8.61328C30.7998 7.15939 29.617 5.97656 28.1631 5.97656ZM29.042 8.61328V11.8359H13.2217V8.61328C13.2217 8.12865 13.616 7.73438 14.1006 7.73438H28.1631C28.6477 7.73438 29.042 8.12865 29.042 8.61328ZM2.55762 2.63672C2.55762 2.15209 2.95189 1.75781 3.43652 1.75781H16.3271C16.8118 1.75781 17.2061 2.15209 17.2061 2.63672V5.97656H14.1006C12.6467 5.97656 11.4639 7.15939 11.4639 8.61328V10.5469H2.55762V2.63672ZM2.55762 27.3633V12.3047H11.4639V27.3633C11.4639 27.6714 11.5175 27.9671 11.615 28.2422H3.43652C2.95189 28.2422 2.55762 27.8479 2.55762 27.3633ZM29.042 27.3633C29.042 27.8479 28.6477 28.2422 28.1631 28.2422H14.1006C13.616 28.2422 13.2217 27.8479 13.2217 27.3633V13.5938H29.042V27.3633Z" fill="#5F5F5F"/>
<path d="M26.4053 10.6641C26.8907 10.6641 27.2842 10.2706 27.2842 9.78516C27.2842 9.29975 26.8907 8.90625 26.4053 8.90625C25.9199 8.90625 25.5264 9.29975 25.5264 9.78516C25.5264 10.2706 25.9199 10.6641 26.4053 10.6641Z" fill="#5F5F5F"/>
<path d="M22.8896 10.6641C23.3751 10.6641 23.7686 10.2706 23.7686 9.78516C23.7686 9.29975 23.3751 8.90625 22.8896 8.90625C22.4042 8.90625 22.0107 9.29975 22.0107 9.78516C22.0107 10.2706 22.4042 10.6641 22.8896 10.6641Z" fill="#5F5F5F"/>
<path d="M21.1318 26.4844C24.2012 26.4844 26.6982 23.9873 26.6982 20.918C26.6982 17.8487 24.2012 15.3516 21.1318 15.3516C18.0625 15.3516 15.5654 17.8487 15.5654 20.918C15.5654 23.9873 18.0625 26.4844 21.1318 26.4844ZM21.1318 17.1094C23.2319 17.1094 24.9404 18.8179 24.9404 20.918C24.9404 23.018 23.2319 24.7266 21.1318 24.7266C19.0318 24.7266 17.3232 23.018 17.3232 20.918C17.3232 18.8179 19.0318 17.1094 21.1318 17.1094Z" fill="#5F5F5F"/>
</svg>
