<svg width="31" height="30" viewBox="0 0 31 30" fill="none" xmlns="http://www.w3.org/2000/svg">
<path d="M15.0463 18.2268C14.0819 18.6343 13.2521 19.3059 12.6523 20.1641C11.298 19.1699 9.96875 17.1772 9.27116 16.0662C9.25906 16.0489 9.25098 16.0291 9.24752 16.0082C9.24405 15.9874 9.24528 15.966 9.25112 15.9457C9.25696 15.9254 9.26726 15.9066 9.28127 15.8908C9.29528 15.875 9.31264 15.8625 9.33209 15.8542C10.2578 15.4579 11.0562 14.8137 11.639 13.9925C12.5133 12.9108 11.387 10.8183 11.0208 10.2031C10.0123 8.50753 8.16139 6.65086 6.27036 6.99919C5.3492 7.1943 4.49573 7.62872 3.79592 8.2587C3.09611 8.88868 2.57468 9.69195 2.28416 10.5876C0.0864694 17.9224 8.37856 28.1224 15.3048 28.1048C16.3628 28.1079 17.4036 27.8374 18.3261 27.3195C19.2487 26.8016 20.0216 26.0539 20.57 25.1491C21.2868 24.1406 20.9751 22.6968 19.6922 21.0832C18.7968 19.9576 16.3796 17.677 15.0463 18.2268ZM19.4091 24.3558C16.1397 29.1613 10.1679 25.8029 6.65441 21.4981C3.39594 17.361 1.15597 9.95508 6.54763 8.37839C8.24745 8.00611 10.8998 12.0495 10.5298 13.1292C10.1035 13.7457 9.51634 14.2337 8.83222 14.5401C8.62424 14.6192 8.436 14.7427 8.28062 14.902C8.12523 15.0613 8.00644 15.2526 7.9325 15.4625C7.85661 15.6766 7.82827 15.9047 7.84946 16.1308C7.87064 16.357 7.94084 16.5759 8.05517 16.7722C9.02766 18.3877 10.2131 19.865 11.5797 21.1643C11.7454 21.3147 11.9416 21.4275 12.1549 21.495C12.3681 21.5626 12.5935 21.5833 12.8155 21.5558C13.0376 21.5283 13.251 21.4532 13.4414 21.3356C13.6317 21.2181 13.7944 21.0608 13.9184 20.8746C14.3052 20.2786 14.866 19.8162 15.5248 19.5503C16.0942 19.5773 18.2752 21.1309 19.2127 22.8855C19.4116 23.2576 19.7034 23.941 19.4091 24.3558ZM25.2776 2.10938H16.5199C15.7742 2.11019 15.0593 2.40677 14.5321 2.93404C14.0048 3.46131 13.7082 4.17621 13.7074 4.92188V10.9108C13.7082 11.6565 14.0048 12.3714 14.5321 12.8986C15.0593 13.4259 15.7742 13.7225 16.5199 13.7233H17.9257V16.5546C17.9275 16.6863 17.966 16.8148 18.0369 16.9258C18.1078 17.0369 18.2082 17.1259 18.327 17.1829C18.4457 17.2399 18.578 17.2627 18.7089 17.2487C18.8399 17.2346 18.9643 17.1843 19.0683 17.1034L23.2901 13.7233H25.2776C26.0233 13.7225 26.7382 13.4259 27.2654 12.8986C27.7927 12.3714 28.0893 11.6565 28.0901 10.9108V4.92188C28.0893 4.17621 27.7927 3.46131 27.2654 2.93404C26.7382 2.40677 26.0233 2.11019 25.2776 2.10938ZM26.6839 10.9108C26.6835 11.2836 26.5352 11.6411 26.2715 11.9047C26.0079 12.1684 25.6504 12.3167 25.2776 12.3171H23.0433C22.8835 12.3171 22.7285 12.3715 22.6038 12.4713L19.3319 15.0911V13.0202C19.3319 12.8337 19.2579 12.6549 19.126 12.523C18.9941 12.3911 18.8153 12.3171 18.6288 12.3171H16.5199C16.1471 12.3167 15.7896 12.1684 15.526 11.9047C15.2624 11.6411 15.1141 11.2836 15.1137 10.9108V4.92188C15.1141 4.54904 15.2624 4.19159 15.526 3.92796C15.7896 3.66432 16.1471 3.51603 16.5199 3.51563H25.2776C25.6504 3.51603 26.0079 3.66432 26.2715 3.92796C26.5352 4.19159 26.6835 4.54904 26.6839 4.92188V10.9108Z" fill="#5F5F5F"/>
</svg>
