<svg width="31" height="30" viewBox="0 0 31 30" fill="none" xmlns="http://www.w3.org/2000/svg">
<g clip-path="url(#clip0_524_1718)">
<path d="M29.9209 14.1214H28.7386C29.2819 13.0415 29.5693 11.8416 29.5693 10.5975C29.5693 8.50008 28.7525 6.52816 27.2695 5.04504C25.7863 3.56191 23.8144 2.74512 21.717 2.74512C19.6196 2.74512 17.6477 3.56191 16.1646 5.04504L15.7998 5.40979L15.4351 5.0451C13.9519 3.56197 11.9801 2.74518 9.8826 2.74518C7.78512 2.74518 5.81326 3.56197 4.33014 5.04504C2.84707 6.52816 2.03027 8.50008 2.03027 10.5975C2.03027 11.8416 2.31768 13.0415 2.86102 14.1214H1.67871C1.19332 14.1214 0.799805 14.515 0.799805 15.0004C0.799805 15.4857 1.19332 15.8793 1.67871 15.8793H4.07203C4.15576 15.9711 4.24172 16.0615 4.3302 16.15L15.1784 26.9981C15.35 27.1697 15.5749 27.2556 15.7998 27.2556C16.0247 27.2556 16.2497 27.1698 16.4212 26.9981L27.2694 16.15C27.3579 16.0615 27.4438 15.9711 27.5276 15.8793H29.9209C30.4063 15.8793 30.7998 15.4857 30.7998 15.0004C30.7998 14.515 30.4063 14.1214 29.9209 14.1214ZM3.78809 10.5975C3.78809 8.96959 4.42201 7.43912 5.57314 6.28799C6.72422 5.13686 8.25469 4.50293 9.8826 4.50293C11.5105 4.50293 13.041 5.13686 14.1921 6.28799L15.1783 7.27418C15.5215 7.61742 16.078 7.61742 16.4212 7.27418L17.4074 6.28799C18.5586 5.13686 20.089 4.50293 21.717 4.50293C23.3449 4.50293 24.8753 5.13686 26.0265 6.28799C27.1776 7.43912 27.8115 8.96959 27.8115 10.5975C27.8115 11.8782 27.4189 13.0986 26.691 14.1214H22.0843L20.1165 11.0145C19.9516 10.7541 19.6628 10.5996 19.3545 10.6061C19.0464 10.6129 18.7645 10.7805 18.6113 11.048L15.73 16.0789L12.0135 8.74377C11.8587 8.4382 11.5392 8.24994 11.1981 8.26266C10.8558 8.27484 10.5518 8.48484 10.4191 8.80066L8.18443 14.1214H4.90863C4.18072 13.0986 3.78809 11.8783 3.78809 10.5975ZM15.7998 25.1337L6.54539 15.8793H8.76855C9.12246 15.8793 9.44186 15.667 9.57891 15.3407L11.3041 11.233L14.8986 18.3273C15.0446 18.6156 15.3371 18.8004 15.6602 18.8087C15.6677 18.8089 15.6752 18.809 15.6827 18.809C15.9971 18.809 16.2885 18.6407 16.4453 18.3669L19.4119 13.1872L20.8581 15.4707C21.0192 15.725 21.2994 15.8793 21.6006 15.8793H25.0542L15.7998 25.1337Z" fill="#5F5F5F"/>
</g>
<defs>
<clipPath id="clip0_524_1718">
<rect width="30" height="30" fill="white" transform="translate(0.799805)"/>
</clipPath>
</defs>
</svg>
