<svg width="31" height="30" viewBox="0 0 31 30" fill="none" xmlns="http://www.w3.org/2000/svg">
<g clip-path="url(#clip0_515_987)">
<path d="M21.4638 7.37793H9.73535C8.76609 7.37793 7.97754 8.16648 7.97754 9.13574V20.8643C7.97754 21.8335 8.76609 22.6221 9.73535 22.6221H21.4639C22.4331 22.6221 23.2217 21.8335 23.2217 20.8643V9.13574C23.2216 8.16648 22.4331 7.37793 21.4638 7.37793ZM21.4638 20.8642L9.73535 20.8653C9.73535 20.8653 9.73529 20.865 9.73529 20.8642V9.13574H21.4638V20.8642Z" fill="#5F5F5F"/>
<path d="M29.7207 15.8789C30.2061 15.8789 30.5996 15.4854 30.5996 15C30.5996 14.5146 30.2061 14.1211 29.7207 14.1211H27.3232V10.4565H29.7207C30.2061 10.4565 30.5996 10.063 30.5996 9.57762C30.5996 9.09223 30.2061 8.69871 29.7207 8.69871H27.3232V5.91305C27.3232 4.45916 26.1404 3.27633 24.6865 3.27633H21.9008V0.878906C21.9008 0.393516 21.5073 0 21.0219 0C20.5365 0 20.143 0.393516 20.143 0.878906V3.27639H16.4785V0.878906C16.4785 0.393516 16.085 0 15.5996 0C15.1142 0 14.7207 0.393516 14.7207 0.878906V3.27639H11.0561V0.878906C11.0561 0.393516 10.6626 0 10.1772 0C9.69184 0 9.29832 0.393516 9.29832 0.878906V3.27639H6.51266C5.05877 3.27639 3.87594 4.45922 3.87594 5.91311V8.69877H1.47852C0.993125 8.69877 0.599609 9.09229 0.599609 9.57768C0.599609 10.0631 0.993125 10.4566 1.47852 10.4566H3.876V14.1211H1.47852C0.993125 14.1211 0.599609 14.5146 0.599609 15C0.599609 15.4854 0.993125 15.8789 1.47852 15.8789H3.876V19.5435H1.47852C0.993125 19.5435 0.599609 19.937 0.599609 20.4224C0.599609 20.9078 0.993125 21.3013 1.47852 21.3013H3.876V24.087C3.876 25.5408 5.05883 26.7237 6.51271 26.7237H9.29838V29.1211C9.29838 29.6065 9.69189 30 10.1773 30C10.6627 30 11.0562 29.6065 11.0562 29.1211V26.7236H14.7207V29.1211C14.7207 29.6065 15.1142 30 15.5996 30C16.085 30 16.4785 29.6065 16.4785 29.1211V26.7236H20.1431V29.1211C20.1431 29.6065 20.5366 30 21.022 30C21.5074 30 21.9009 29.6065 21.9009 29.1211V26.7236H24.6866C26.1404 26.7236 27.3233 25.5408 27.3233 24.0869V21.3012H29.7207C30.2061 21.3012 30.5996 20.9077 30.5996 20.4223C30.5996 19.9369 30.2061 19.5434 29.7207 19.5434H27.3232V15.8789H29.7207ZM25.5654 24.0869C25.5654 24.5715 25.1711 24.9658 24.6865 24.9658H6.51271C6.02809 24.9658 5.63381 24.5715 5.63381 24.0869V5.91311C5.63381 5.42848 6.02809 5.0342 6.51271 5.0342H24.6866C25.1712 5.0342 25.5655 5.42848 25.5655 5.91311V24.0869H25.5654Z" fill="#5F5F5F"/>
</g>
<defs>
<clipPath id="clip0_515_987">
<rect width="30" height="30" fill="white" transform="translate(0.599609)"/>
</clipPath>
</defs>
</svg>
