<svg width="26" height="21" viewBox="0 0 26 21" fill="none" xmlns="http://www.w3.org/2000/svg">
<path fill-rule="evenodd" clip-rule="evenodd" d="M0.699219 18.5V2.25C0.699219 1.7525 0.896719 1.27563 1.24859 0.924375C1.59984 0.5725 2.07672 0.375 2.57422 0.375H23.8242C24.3217 0.375 24.7986 0.5725 25.1498 0.924375C25.5017 1.27563 25.6992 1.7525 25.6992 2.25V18.5C25.6992 18.9975 25.5017 19.4744 25.1498 19.8256C24.7986 20.1775 24.3217 20.375 23.8242 20.375H2.57422C2.07672 20.375 1.59984 20.1775 1.24859 19.8256C0.896719 19.4744 0.699219 18.9975 0.699219 18.5ZM24.4492 4.125V2.25C24.4492 2.08438 24.3836 1.925 24.2661 1.80813C24.1492 1.69063 23.9898 1.625 23.8242 1.625H2.57422C2.40859 1.625 2.24922 1.69063 2.13234 1.80813C2.01484 1.925 1.94922 2.08438 1.94922 2.25V4.125H24.4492ZM1.94922 5.375V18.5C1.94922 18.6656 2.01484 18.825 2.13234 18.9419C2.24922 19.0594 2.40859 19.125 2.57422 19.125H23.8242C23.9898 19.125 24.1492 19.0594 24.2661 18.9419C24.3836 18.825 24.4492 18.6656 24.4492 18.5V5.375H1.94922Z" fill="#5F5F5F"/>
<path fill-rule="evenodd" clip-rule="evenodd" d="M5.28733 8.34561C5.02795 8.11811 5.0017 7.72311 5.22858 7.46311C5.45608 7.20374 5.85108 7.17749 6.11108 7.40436L11.1111 11.7794C11.2467 11.8981 11.3242 12.07 11.3242 12.25C11.3242 12.43 11.2467 12.6019 11.1111 12.7206L6.11108 17.0956C5.85108 17.3225 5.45608 17.2962 5.22858 17.0369C5.0017 16.7769 5.02795 16.3819 5.28733 16.1544L9.74983 12.25L5.28733 8.34561Z" fill="#5F5F5F"/>
<path fill-rule="evenodd" clip-rule="evenodd" d="M12.5742 15.375C12.2292 15.375 11.9492 15.095 11.9492 14.75C11.9492 14.405 12.2292 14.125 12.5742 14.125H20.6992C21.0442 14.125 21.3242 14.405 21.3242 14.75C21.3242 15.095 21.0442 15.375 20.6992 15.375H12.5742Z" fill="#5F5F5F"/>
</svg>
